<svg xmlns="http://www.w3.org/2000/svg" xmlns:xlink="http://www.w3.org/1999/xlink" width="97" height="31" viewBox="0 0 97 31">
  <defs>
    <linearGradient id="linear-gradient" x1="0.915" y1="1.03" x2="-0.383" y2="0.361" gradientUnits="objectBoundingBox">
      <stop offset="0" stop-color="#00a0ff"/>
      <stop offset="0.007" stop-color="#00a1ff"/>
      <stop offset="0.26" stop-color="#00beff"/>
      <stop offset="0.512" stop-color="#00d2ff"/>
      <stop offset="0.76" stop-color="#00dfff"/>
      <stop offset="1" stop-color="#00e3ff"/>
    </linearGradient>
    <linearGradient id="linear-gradient-2" x1="1.076" y1="0.733" x2="-1.305" y2="0.733" gradientUnits="objectBoundingBox">
      <stop offset="0" stop-color="#ffe000"/>
      <stop offset="0.409" stop-color="#ffbd00"/>
      <stop offset="0.775" stop-color="orange"/>
      <stop offset="1" stop-color="#ff9c00"/>
    </linearGradient>
    <linearGradient id="linear-gradient-3" x1="0.862" y1="-0.023" x2="-0.501" y2="-1.793" gradientUnits="objectBoundingBox">
      <stop offset="0" stop-color="#ff3a44"/>
      <stop offset="1" stop-color="#c31162"/>
    </linearGradient>
    <linearGradient id="linear-gradient-4" x1="-0.188" y1="2.697" x2="0.421" y2="1.907" gradientUnits="objectBoundingBox">
      <stop offset="0" stop-color="#32a071"/>
      <stop offset="0.068" stop-color="#2da771"/>
      <stop offset="0.476" stop-color="#15cf74"/>
      <stop offset="0.801" stop-color="#06e775"/>
      <stop offset="1" stop-color="#00f076"/>
    </linearGradient>
  </defs>
  <g id="グループ_643" data-name="グループ 643" transform="translate(-0.196)">
    <g id="artwork" transform="translate(0 0)">
      <g id="長方形_612" data-name="長方形 612" transform="translate(0.196)" stroke="#a6a6a6" stroke-width="0.5">
        <rect width="97" height="31" rx="3" stroke="none"/>
        <rect x="0.25" y="0.25" width="96.5" height="30.5" rx="2.75" fill="none"/>
      </g>
      <path id="パス_277" data-name="パス 277" d="M68.293,21.673a2.708,2.708,0,1,0,2.718,2.708A2.669,2.669,0,0,0,68.293,21.673Zm0,4.349a1.645,1.645,0,1,1,1.528-1.641A1.567,1.567,0,0,1,68.293,26.023Zm-5.93-4.349a2.708,2.708,0,1,0,2.718,2.708A2.669,2.669,0,0,0,62.363,21.673Zm0,4.349a1.645,1.645,0,1,1,1.528-1.641A1.566,1.566,0,0,1,62.363,26.023ZM55.309,22.5v1.149h2.749a2.4,2.4,0,0,1-.626,1.446,2.812,2.812,0,0,1-2.123.841,3.057,3.057,0,0,1,0-6.114,2.93,2.93,0,0,1,2.072.821l.81-.81a4.006,4.006,0,0,0-2.882-1.16,4.206,4.206,0,1,0,0,8.411,3.844,3.844,0,0,0,2.933-1.179,4.148,4.148,0,0,0,.934-3.405Zm28.848.892a2.518,2.518,0,0,0-2.319-1.723,2.574,2.574,0,0,0-2.554,2.708,2.649,2.649,0,0,0,2.687,2.707,2.694,2.694,0,0,0,2.257-1.2l-.923-.616a1.547,1.547,0,0,1-1.334.749,1.378,1.378,0,0,1-1.313-.821l3.622-1.5Zm-3.693.9a1.486,1.486,0,0,1,1.415-1.58,1.048,1.048,0,0,1,1.005.575ZM77.52,26.925h1.19V18.966H77.52Zm-1.948-4.647H75.53a1.875,1.875,0,0,0-1.425-.605,2.71,2.71,0,0,0,0,5.416,1.847,1.847,0,0,0,1.425-.615h.042v.39c0,1.036-.554,1.589-1.447,1.589a1.5,1.5,0,0,1-1.364-.964l-1.036.43a2.58,2.58,0,0,0,2.4,1.6c1.4,0,2.575-.821,2.575-2.821V21.837H75.571Zm-1.364,3.744a1.647,1.647,0,0,1,0-3.282,1.526,1.526,0,0,1,1.446,1.651A1.513,1.513,0,0,1,74.207,26.023ZM89.73,18.966H86.884v7.959h1.188V23.909H89.73a2.476,2.476,0,1,0,0-4.944Zm.031,3.836H88.072V20.074h1.689a1.364,1.364,0,1,1,0,2.728ZM97.1,21.659a2.23,2.23,0,0,0-2.12,1.219l1.055.44a1.126,1.126,0,0,1,1.085-.583,1.144,1.144,0,0,1,1.249,1.024v.082a2.635,2.635,0,0,0-1.239-.307c-1.136,0-2.294.624-2.294,1.792a1.839,1.839,0,0,0,1.976,1.751,1.676,1.676,0,0,0,1.516-.779h.041v.615H99.52V23.861A2.183,2.183,0,0,0,97.1,21.659Zm-.143,4.362c-.389,0-.932-.194-.932-.676,0-.614.676-.85,1.259-.85a2.115,2.115,0,0,1,1.085.267A1.44,1.44,0,0,1,96.96,26.021Zm6.738-4.188-1.361,3.451H102.3l-1.414-3.451H99.6l2.12,4.823-1.208,2.683h1.239l3.267-7.506ZM93,26.925h1.187V18.966H93Z" transform="translate(-22.259 -11.856)" fill="#fff"/>
      <g id="グループ_641" data-name="グループ 641" transform="translate(6.152 5.702)">
        <path id="パス_278" data-name="パス 278" d="M20.31,17.518a1.462,1.462,0,0,0-.337,1.023V34.651a1.461,1.461,0,0,0,.337,1.023l.054.052L29.388,26.7V26.49l-9.024-9.025Z" transform="translate(-19.973 -17.229)" fill="url(#linear-gradient)"/>
        <path id="パス_279" data-name="パス 279" d="M35.906,31.956,32.9,28.946v-.213l3.009-3.009.068.039,3.564,2.025a1.106,1.106,0,0,1,0,2.1l-3.564,2.025Z" transform="translate(-23.483 -19.472)" fill="url(#linear-gradient-2)"/>
        <path id="パス_280" data-name="パス 280" d="M32.59,33.078,29.513,30l-9.078,9.078a1.185,1.185,0,0,0,1.514.044L32.59,33.078" transform="translate(-20.098 -20.633)" fill="url(#linear-gradient-3)"/>
        <path id="パス_281" data-name="パス 281" d="M32.59,23.431,21.949,17.386a1.185,1.185,0,0,0-1.514.044l9.078,9.078Z" transform="translate(-20.098 -17.14)" fill="url(#linear-gradient-4)"/>
        <g id="グループ_640" data-name="グループ 640" transform="translate(0 12.377)">
          <path id="パス_282" data-name="パス 282" d="M32.522,34.132,21.949,40.139a1.213,1.213,0,0,1-1.46.008h0l-.055.054h0l.054.053h0a1.213,1.213,0,0,0,1.46-.008L32.59,34.2Z" transform="translate(-20.098 -34.132)" opacity="0.2" style="isolation: isolate"/>
          <path id="パス_283" data-name="パス 283" d="M20.31,41.936a1.462,1.462,0,0,1-.337-1.023v.106a1.461,1.461,0,0,0,.337,1.023l.055-.054Z" transform="translate(-19.973 -35.974)" opacity="0.12" style="isolation: isolate"/>
        </g>
        <path id="パス_284" data-name="パス 284" d="M40.661,30.946,37.029,33.01l.068.068,3.564-2.025A1.279,1.279,0,0,0,41.424,30h0A1.355,1.355,0,0,1,40.661,30.946Z" transform="translate(-24.605 -20.633)" opacity="0.12" style="isolation: isolate"/>
        <path id="パス_285" data-name="パス 285" d="M21.824,17.492l14.2,8.071a1.355,1.355,0,0,1,.763.945h0a1.277,1.277,0,0,0-.763-1.052l-14.2-8.071c-1.018-.578-1.851-.1-1.851,1.068v.107C19.973,17.394,20.806,16.914,21.824,17.492Z" transform="translate(-19.973 -17.14)" fill="#fff" opacity="0.25" style="isolation: isolate"/>
      </g>
    </g>
    <g id="Layer_3" data-name="Layer 3" transform="translate(29.069 19.614)">
      <g id="グループ_642" data-name="グループ 642">
        <g id="パス_286" data-name="パス 286" transform="translate(-51.435 -36.242)" fill="#fff" stroke-miterlimit="10">
          <path d="M 56.29548645019531 40.98143768310547 L 51.53500366210938 40.98143768310547 L 51.53500366210938 40.81504821777344 L 56.29548645019531 40.81504821777344 L 56.29548645019531 40.98143768310547 Z M 54.67506408691406 40.44157028198242 L 54.53715515136719 40.40234375 C 54.76712036132812 39.77083206176758 55.01240158081055 38.7889289855957 55.14596557617188 38.10010147094727 L 55.36331558227539 38.14727401733398 L 55.36268615722656 38.15004730224609 C 55.20955276489258 38.82449340820312 54.92197418212891 39.8333854675293 54.67506408691406 40.44157028198242 Z M 52.9455451965332 40.2874641418457 C 52.9063835144043 39.68350219726562 52.72954940795898 38.85350799560547 52.49639511108398 38.18272018432617 L 52.65270614624023 38.14364242553711 C 52.89145278930664 38.79034805297852 53.07863616943359 39.62655639648438 53.12353897094727 40.2454833984375 C 53.08419036865234 40.25369262695312 53.02876281738281 40.26675415039062 52.9455451965332 40.2874641418457 Z M 56.14252471923828 37.62347793579102 L 51.7265739440918 37.62347793579102 L 51.7265739440918 37.46291732788086 L 53.71055603027344 37.46291732788086 L 53.81055450439453 37.46291732788086 L 53.81055450439453 37.36291885375977 L 53.81055450439453 36.35411834716797 L 53.98788452148438 36.3663330078125 L 53.98788452148438 37.36291885375977 L 53.98788452148438 37.46291732788086 L 54.08788681030273 37.46291732788086 L 56.14252471923828 37.46291732788086 L 56.14252471923828 37.62347793579102 Z" stroke="none"/>
          <path d="M 55.09901809692383 38.79317092895508 C 55.15306854248047 38.59225463867188 55.20198440551758 38.39860534667969 55.24308395385742 38.2235107421875 L 55.22430801391602 38.21943664550781 C 55.18843841552734 38.39772033691406 55.14603424072266 38.59220886230469 55.09901809692383 38.79317092895508 M 56.39548492431641 41.08143997192383 L 51.43500518798828 41.08143997192383 L 51.43500518798828 40.71504974365234 L 56.39548492431641 40.71504974365234 L 56.39548492431641 41.08143997192383 Z M 54.7332649230957 40.56208801269531 L 54.40546417236328 40.46884918212891 C 54.64584350585938 39.8460578918457 54.92482376098633 38.74617004394531 55.06686401367188 37.98060989379883 L 55.59714508056641 38.09569931030273 C 55.58039474487305 38.13430786132812 55.53158569335938 38.16707992553711 55.460205078125 38.17218780517578 C 55.29631423950195 38.89402770996094 54.98965454101562 39.96043014526367 54.7332649230957 40.56208801269531 Z M 52.85177612304688 40.41421890258789 C 52.83063507080078 39.79579925537109 52.63324356079102 38.84523010253906 52.36518478393555 38.11244964599609 L 52.71482467651367 38.02503967285156 C 52.9996337890625 38.76292037963867 53.19703674316406 39.70330047607422 53.22908401489258 40.3318977355957 C 53.19120407104492 40.3318977355957 53.15260314941406 40.33773803710938 52.85177612304688 40.41421890258789 Z M 56.24252319335938 37.72348022460938 L 51.6265754699707 37.72348022460938 L 51.6265754699707 37.36291885375977 L 53.71055603027344 37.36291885375977 L 53.71055603027344 36.24699783325195 L 54.19713592529297 36.28050994873047 C 54.19203567504883 36.31838989257812 54.16436386108398 36.3460693359375 54.08788681030273 36.35625839233398 L 54.08788681030273 37.36291885375977 L 56.24252319335938 37.36291885375977 L 56.24252319335938 37.72348022460938 Z" stroke="none" fill="#fff"/>
        </g>
        <g id="パス_287" data-name="パス 287" transform="translate(-53.487 -36.356)" fill="#fff" stroke-miterlimit="10">
          <path d="M 62.12805938720703 41.34198379516602 L 61.95657730102539 41.34198379516602 L 61.95657730102539 36.76800155639648 L 63.73129653930664 36.76800155639648 L 63.73129653930664 40.05291366577148 C 63.73129653930664 40.39074325561523 63.65909194946289 40.43192291259766 62.89457702636719 40.43427658081055 C 62.88022613525391 40.37831878662109 62.86013031005859 40.3156623840332 62.83752059936523 40.25579071044922 C 62.95708084106445 40.25925445556641 63.06865692138672 40.26218414306641 63.15824890136719 40.26218414306641 C 63.42512893676758 40.26218414306641 63.55908966064453 40.26218414306641 63.55908966064453 40.04708099365234 L 63.55908966064453 37.03439331054688 L 63.55908966064453 36.93439102172852 L 63.45908737182617 36.93439102172852 L 62.22805786132812 36.93439102172852 L 62.12805938720703 36.93439102172852 L 62.12805938720703 37.03439331054688 L 62.12805938720703 41.34198379516602 Z M 59.19337463378906 40.96451568603516 L 59.12484741210938 40.78472137451172 C 59.21308898925781 40.7630500793457 59.30657577514648 40.73934936523438 59.40545654296875 40.71248245239258 L 59.4792366027832 40.69244384765625 L 59.4792366027832 40.61598205566406 L 59.4792366027832 36.76800155639648 L 61.24304962158203 36.76800155639648 L 61.24304962158203 39.09994125366211 L 59.72960662841797 39.09994125366211 L 59.62960815429688 39.09994125366211 L 59.62960815429688 39.19994354248047 L 59.62960815429688 40.52346420288086 L 59.62960815429688 40.65459442138672 L 59.75606918334961 40.61990356445312 L 60.85524749755859 40.31834411621094 L 60.99226760864258 40.28075408935547 L 60.91063690185547 40.16445159912109 C 60.75290679931641 39.93972778320312 60.6021614074707 39.74434661865234 60.46128845214844 39.58197784423828 L 60.56752777099609 39.52275085449219 C 60.93787002563477 39.9379768371582 61.29676818847656 40.43945693969727 61.47982406616211 40.79598999023438 L 61.34785842895508 40.87359619140625 C 61.28742218017578 40.75307083129883 61.20585250854492 40.61063766479492 61.10439682006836 40.44855117797852 L 61.06321716308594 40.38276290893555 L 60.9892692565918 40.40633392333984 C 60.25680923461914 40.63981246948242 59.60411834716797 40.84270095825195 59.19857788085938 40.96297454833984 L 59.19337463378906 40.96451568603516 Z M 59.62960815429688 37.99495315551758 L 59.62960815429688 38.09495162963867 L 59.62960815429688 38.85541152954102 L 59.62960815429688 38.95541381835938 L 59.72960662841797 38.95541381835938 L 60.99776840209961 38.95541381835938 L 61.0977668762207 38.95541381835938 L 61.0977668762207 38.85541152954102 L 61.0977668762207 38.09495162963867 L 61.0977668762207 37.99495315551758 L 60.99776840209961 37.99495315551758 L 59.72960662841797 37.99495315551758 L 59.62960815429688 37.99495315551758 Z M 59.62960815429688 36.91764450073242 L 59.62960815429688 37.01764297485352 L 59.62960815429688 37.76133346557617 L 59.62960815429688 37.86133193969727 L 59.72960662841797 37.86133193969727 L 60.99776840209961 37.86133193969727 L 61.0977668762207 37.86133193969727 L 61.0977668762207 37.76133346557617 L 61.0977668762207 37.01764297485352 L 61.0977668762207 36.91764450073242 L 60.99776840209961 36.91764450073242 L 59.72960662841797 36.91764450073242 L 59.62960815429688 36.91764450073242 Z" stroke="none"/>
          <path d="M 62.22805786132812 41.44198226928711 L 61.8565788269043 41.44198226928711 L 61.8565788269043 36.66800308227539 L 63.831298828125 36.66800308227539 L 63.831298828125 40.05291366577148 C 63.831298828125 40.52346420288086 63.59603881835938 40.53439331054688 62.81369781494141 40.53439331054688 C 62.79767990112305 40.43022155761719 62.73722839355469 40.25540161132812 62.68259811401367 40.15124130249023 C 62.86324691772461 40.15634155273438 63.0322380065918 40.16218185424805 63.15824890136719 40.16218185424805 C 63.42630767822266 40.16218185424805 63.45908737182617 40.16218185424805 63.45908737182617 40.04708099365234 L 63.45908737182617 37.03439331054688 L 62.22805786132812 37.03439331054688 L 62.22805786132812 41.44198226928711 Z M 59.1556282043457 41.1462516784668 L 58.99099731445312 40.71430206298828 C 59.10608673095703 40.6866340637207 59.23719787597656 40.65457153320312 59.37923812866211 40.61598205566406 L 59.37923812866211 36.66800308227539 L 61.34304809570312 36.66800308227539 L 61.34304809570312 39.19994354248047 L 59.72960662841797 39.19994354248047 L 59.72960662841797 40.52346420288086 L 60.82878875732422 40.22190093994141 C 60.66416931152344 39.98736190795898 60.48424911499023 39.75207138061523 60.30359649658203 39.55540084838867 L 60.58841705322266 39.39662170410156 C 60.99267959594727 39.83948135375977 61.42462921142578 40.43533325195312 61.61037826538086 40.83522415161133 L 61.30443954467773 41.01514434814453 C 61.23886871337891 40.86800384521484 61.13544845581055 40.6866340637207 61.01963806152344 40.50161361694336 C 60.35239791870117 40.71430206298828 59.66914749145508 40.9277229309082 59.22700881958008 41.05884170532227 C 59.2211799621582 41.10255432128906 59.19350814819336 41.13023376464844 59.1556282043457 41.1462516784668 Z M 59.72960662841797 38.09495162963867 L 59.72960662841797 38.85541152954102 L 60.99776840209961 38.85541152954102 L 60.99776840209961 38.09495162963867 L 59.72960662841797 38.09495162963867 Z M 59.72960662841797 37.01764297485352 L 59.72960662841797 37.76133346557617 L 60.99776840209961 37.76133346557617 L 60.99776840209961 37.01764297485352 L 59.72960662841797 37.01764297485352 Z" stroke="none" fill="#fff"/>
        </g>
        <g id="パス_288" data-name="パス 288" transform="translate(-55.551 -36.395)" fill="#fff" stroke-miterlimit="10">
          <path d="M 69.03871154785156 41.37472152709961 L 68.85047912597656 41.37472152709961 L 68.85047912597656 37.17712020874023 L 68.85047912597656 37.07712173461914 L 68.75048065185547 37.07712173461914 L 66.68998718261719 37.07712173461914 L 66.68998718261719 36.90999984741211 L 71.41771697998047 36.90999984741211 L 71.41771697998047 37.07712173461914 L 69.19842529296875 37.07712173461914 L 69.18524169921875 37.07712173461914 L 69.17250823974609 37.08053970336914 L 69.11278533935547 37.0965690612793 L 69.03871154785156 37.11645126342773 L 69.03871154785156 37.19314956665039 L 69.03871154785156 38.14517974853516 L 69.03871154785156 38.42428207397461 L 69.03871154785156 38.50574111938477 L 69.03871154785156 41.37472152709961 Z M 70.93685150146484 39.49667739868164 C 70.49988555908203 39.16346740722656 69.75707244873047 38.72218322753906 69.18576812744141 38.41749954223633 L 69.08740997314453 38.36504745483398 L 69.19261932373047 38.2370719909668 C 69.80828094482422 38.54177856445312 70.60860443115234 38.99218368530273 71.0692138671875 39.32795333862305 L 70.93685150146484 39.49667739868164 Z" stroke="none"/>
          <path d="M 70.48892211914062 39.06488418579102 C 70.64577484130859 39.16616439819336 70.79195404052734 39.26545333862305 70.91843414306641 39.35813522338867 L 70.92592620849609 39.34858322143555 C 70.79794311523438 39.25920104980469 70.64923858642578 39.16312789916992 70.48892211914062 39.06488418579102 M 66.58998870849609 36.81000137329102 L 71.51771545410156 36.81000137329102 L 71.51771545410156 37.17712020874023 L 69.19842529296875 37.17712020874023 L 69.13871002197266 37.19314193725586 L 69.13871002197266 38.14517974853516 L 69.16565704345703 38.11240005493164 C 69.85984802246094 38.45109939575195 70.75651550292969 38.95954132080078 71.21105194091797 39.30916976928711 L 70.95391082763672 39.6369514465332 C 70.55984497070312 39.32009887695312 69.79428863525391 38.85536956787109 69.13871002197266 38.50574111938477 L 69.13871002197266 41.4747200012207 L 68.75048065185547 41.4747200012207 L 68.75048065185547 37.17712020874023 L 66.58998870849609 37.17712020874023 L 66.58998870849609 36.81000137329102 Z" stroke="none" fill="#fff"/>
        </g>
        <g id="パス_289" data-name="パス 289" transform="translate(-57.57 -36.24)" fill="#fff" stroke-miterlimit="10">
          <path d="M 75.53162384033203 41.23011016845703 L 75.39800262451172 41.23011016845703 L 75.39800262451172 40.76194763183594 L 75.39800262451172 40.66194915771484 L 75.29800415039062 40.66194915771484 L 74.18955230712891 40.66194915771484 L 74.18955230712891 40.56694030761719 L 75.29800415039062 40.56694030761719 L 75.39800262451172 40.56694030761719 L 75.39800262451172 40.46693801879883 L 75.39800262451172 40.14426803588867 L 75.39800262451172 40.04426956176758 L 75.29800415039062 40.04426956176758 L 74.429931640625 40.04426956176758 L 74.429931640625 38.88795852661133 L 75.29800415039062 38.88795852661133 L 75.39800262451172 38.88795852661133 L 75.39800262451172 38.78796005249023 L 75.39800262451172 38.47111129760742 L 75.39800262451172 38.37110900878906 L 75.29800415039062 38.37110900878906 L 74.27696990966797 38.37110900878906 L 74.27696990966797 38.28630065917969 L 75.29800415039062 38.28630065917969 L 75.39800262451172 38.28630065917969 L 75.39800262451172 38.18629837036133 L 75.39800262451172 37.92766189575195 L 75.53742980957031 37.93807220458984 L 75.53742980957031 38.18629837036133 L 75.53742980957031 38.28630065917969 L 75.63742828369141 38.28630065917969 L 76.68540191650391 38.28630065917969 L 76.68540191650391 38.37110900878906 L 75.63742828369141 38.37110900878906 L 75.53742980957031 38.37110900878906 L 75.53742980957031 38.47111129760742 L 75.53742980957031 38.78796005249023 L 75.53742980957031 38.88795852661133 L 75.63742828369141 38.88795852661133 L 76.53755187988281 38.88795852661133 L 76.53755187988281 40.04426956176758 L 75.63162231445312 40.04426956176758 L 75.53162384033203 40.04426956176758 L 75.53162384033203 40.14426803588867 L 75.53162384033203 40.46693801879883 L 75.53162384033203 40.56694030761719 L 75.63162231445312 40.56694030761719 L 76.70800018310547 40.56694030761719 L 76.70800018310547 40.66194915771484 L 75.63162231445312 40.66194915771484 L 75.53162384033203 40.66194915771484 L 75.53162384033203 40.76194763183594 L 75.53162384033203 41.23011016845703 Z M 75.51557922363281 39.47537994384766 L 75.51557922363281 39.57537841796875 L 75.51557922363281 39.91481018066406 L 75.51557922363281 40.01480865478516 L 75.61558532714844 40.01480865478516 L 76.342529296875 40.01480865478516 L 76.44253540039062 40.01480865478516 L 76.44253540039062 39.91481018066406 L 76.44253540039062 39.57537841796875 L 76.44253540039062 39.47537994384766 L 76.342529296875 39.47537994384766 L 75.61558532714844 39.47537994384766 L 75.51557922363281 39.47537994384766 Z M 74.51475524902344 39.47537994384766 L 74.51475524902344 39.57537841796875 L 74.51475524902344 39.91481018066406 L 74.51475524902344 40.01480865478516 L 74.61475372314453 40.01480865478516 L 75.32059478759766 40.01480865478516 L 75.42059326171875 40.01480865478516 L 75.42059326171875 39.91481018066406 L 75.42059326171875 39.57537841796875 L 75.42059326171875 39.47537994384766 L 75.32059478759766 39.47537994384766 L 74.61475372314453 39.47537994384766 L 74.51475524902344 39.47537994384766 Z M 75.51557922363281 38.91814804077148 L 75.51557922363281 39.01815032958984 L 75.51557922363281 39.35176086425781 L 75.51557922363281 39.45175933837891 L 75.61558532714844 39.45175933837891 L 76.342529296875 39.45175933837891 L 76.44253540039062 39.45175933837891 L 76.44253540039062 39.35176086425781 L 76.44253540039062 39.01815032958984 L 76.44253540039062 38.91814804077148 L 76.342529296875 38.91814804077148 L 75.61558532714844 38.91814804077148 L 75.51557922363281 38.91814804077148 Z M 74.51475524902344 38.91814804077148 L 74.51475524902344 39.01815032958984 L 74.51475524902344 39.35176086425781 L 74.51475524902344 39.45175933837891 L 74.61475372314453 39.45175933837891 L 75.32059478759766 39.45175933837891 L 75.42059326171875 39.45175933837891 L 75.42059326171875 39.35176086425781 L 75.42059326171875 39.01815032958984 L 75.42059326171875 38.91814804077148 L 75.32059478759766 38.91814804077148 L 74.61475372314453 38.91814804077148 L 74.51475524902344 38.91814804077148 Z M 78.46440887451172 41.22573852539062 C 78.13428497314453 41.22573852539062 77.85471343994141 40.94874954223633 77.63346099853516 40.40245056152344 L 77.56986236572266 40.24542999267578 L 77.46311950683594 40.37697982788086 C 77.20446014404297 40.69573593139648 76.91420745849609 40.96883392333984 76.59931182861328 41.18987655639648 C 76.56227874755859 41.14580535888672 76.52003479003906 41.10140228271484 76.47714233398438 41.06133270263672 C 76.55546569824219 41.00775909423828 76.63331604003906 40.95043182373047 76.70800018310547 40.89130783081055 L 76.70800018310547 40.905029296875 L 76.87493133544922 40.75466918945312 C 76.87575531005859 40.75392532348633 76.8765869140625 40.753173828125 76.87741851806641 40.75242614746094 L 76.98688507080078 40.66194915771484 L 76.97492218017578 40.66194915771484 C 77.15605163574219 40.48909378051758 77.32657623291016 40.2992057800293 77.48306274414062 40.09600830078125 L 77.51427459716797 40.05548858642578 L 77.49967193603516 40.0064697265625 C 77.33424377441406 39.45077133178711 77.21793365478516 38.70541000366211 77.15396118164062 37.79108047485352 L 77.14745330810547 37.69805908203125 L 77.05419921875 37.69805908203125 L 74.12400054931641 37.69805908203125 L 74.12400054931641 37.58047866821289 L 75.29800415039062 37.58047866821289 L 75.39800262451172 37.58047866821289 L 75.39800262451172 37.4804801940918 L 75.39800262451172 37.00555801391602 L 75.39800262451172 36.90555953979492 L 75.29800415039062 36.90555953979492 L 74.37020111083984 36.90555953979492 L 74.37020111083984 36.79888916015625 L 75.29800415039062 36.79888916015625 L 75.39800262451172 36.79888916015625 L 75.39800262451172 36.69889068603516 L 75.39800262451172 36.34596252441406 L 75.55419158935547 36.35502243041992 L 75.55419158935547 36.69889068603516 L 75.55419158935547 36.79888916015625 L 75.65419006347656 36.79888916015625 L 76.57614898681641 36.79888916015625 L 76.57614898681641 36.90555953979492 L 75.65419006347656 36.90555953979492 L 75.55419158935547 36.90555953979492 L 75.55419158935547 37.00555801391602 L 75.55419158935547 37.4804801940918 L 75.55419158935547 37.58047866821289 L 75.65419006347656 37.58047866821289 L 77.03746032714844 37.58047866821289 L 77.14311218261719 37.58047866821289 L 77.13731384277344 37.47499084472656 C 77.11359405517578 37.04361724853516 77.10133361816406 36.68451309204102 77.09918212890625 36.35550308227539 C 77.16994476318359 36.35874557495117 77.2257080078125 36.36148452758789 77.27032470703125 36.36384582519531 C 77.27036285400391 36.78187561035156 77.27754211425781 37.14862823486328 77.29228210449219 37.48485946655273 L 77.29647064208984 37.58047866821289 L 77.39218139648438 37.58047866821289 L 78.88375854492188 37.58047866821289 L 78.88375854492188 37.69805908203125 L 77.41476440429688 37.69805908203125 L 77.3074951171875 37.69805908203125 L 77.31501007080078 37.80506896972656 C 77.36537933349609 38.52230834960938 77.45693969726562 39.1690788269043 77.57981109619141 39.67543792724609 L 77.63500213623047 39.90287780761719 L 77.76119995117188 39.70578765869141 C 78.03816223144531 39.27326583862305 78.27069854736328 38.77815246582031 78.45309448242188 38.2327880859375 L 78.59920501708984 38.27392959594727 C 78.38646697998047 38.9307861328125 78.09121704101562 39.52748870849609 77.72150421142578 40.0477294921875 L 77.69189453125 40.08938980102539 L 77.70831298828125 40.13779067993164 C 77.91709136962891 40.75315856933594 78.18054962158203 41.06517791748047 78.49136352539062 41.06517791748047 C 78.72953796386719 41.06517791748047 78.80596923828125 40.77462005615234 78.84333038330078 40.20153045654297 C 78.87600708007812 40.22312164306641 78.9100341796875 40.24294281005859 78.94380950927734 40.25920104980469 C 78.87468719482422 41.08915710449219 78.7432861328125 41.22573852539062 78.46440887451172 41.22573852539062 Z M 78.56667327880859 37.15277099609375 C 78.40596771240234 36.94244003295898 78.15299987792969 36.69718551635742 77.9364013671875 36.5142707824707 L 78.02918243408203 36.45035934448242 C 78.25520324707031 36.62735366821289 78.52335357666016 36.87154769897461 78.68038940429688 37.06446838378906 L 78.56667327880859 37.15277099609375 Z" stroke="none"/>
          <path d="M 75.29800415039062 36.23999786376953 L 75.76271820068359 36.26694869995117 C 75.75762176513672 36.30554962158203 75.72993469238281 36.3325080871582 75.65419006347656 36.34415817260742 L 75.65419006347656 36.69889068603516 L 76.67615509033203 36.69889068603516 L 76.67615509033203 37.00555801391602 L 75.65419006347656 37.00555801391602 L 75.65419006347656 37.4804801940918 L 77.03746032714844 37.4804801940918 C 77.01560211181641 37.08275985717773 76.99884033203125 36.66611862182617 76.99884033203125 36.25091934204102 C 77.36524200439453 36.26694869995117 77.42496490478516 36.27276992797852 77.48030853271484 36.27861022949219 C 77.48030853271484 36.32230758666992 77.44753265380859 36.34925842285156 77.37032318115234 36.36019897460938 C 77.37032318115234 36.74332046508789 77.37615966796875 37.11481857299805 77.39218139648438 37.4804801940918 L 78.9837646484375 37.4804801940918 L 78.9837646484375 37.79805755615234 L 77.41476440429688 37.79805755615234 C 77.46356201171875 38.49295043945312 77.55097198486328 39.13249969482422 77.67699432373047 39.65185928344727 C 77.97782897949219 39.18204879760742 78.21237945556641 38.65756988525391 78.38792419433594 38.11053848266602 L 78.81475830078125 38.23073959350586 C 78.79801177978516 38.26861953735352 78.75941467285156 38.29045867919922 78.69895172119141 38.29045867919922 C 78.49136352539062 38.93582916259766 78.19125366210938 39.55934906005859 77.80300903320312 40.10565948486328 C 77.98292541503906 40.63594055175781 78.21237945556641 40.96517944335938 78.49136352539062 40.96517944335938 C 78.65597534179688 40.96517944335938 78.72153472900391 40.68619918823242 78.75431823730469 40.00148773193359 C 78.830810546875 40.07870101928711 78.95680999755859 40.16611862182617 79.04930877685547 40.19379043579102 C 78.9837646484375 41.06277847290039 78.85263824462891 41.32574081420898 78.46440887451172 41.32574081420898 C 78.06523895263672 41.32574081420898 77.76438903808594 40.99213027954102 77.540771484375 40.43999099731445 C 77.26177978515625 40.78380966186523 76.93838500976562 41.08535766601562 76.57781982421875 41.32574081420898 C 76.51736450195312 41.23833847045898 76.40808868408203 41.12250900268555 76.30976867675781 41.05186080932617 C 76.44667816162109 40.96517944335938 76.58290863037109 40.86610794067383 76.70893096923828 40.76194763183594 L 75.63162231445312 40.76194763183594 L 75.63162231445312 41.33010864257812 L 75.29800415039062 41.33010864257812 L 75.29800415039062 40.76194763183594 L 74.08955383300781 40.76194763183594 L 74.08955383300781 40.46693801879883 L 75.29800415039062 40.46693801879883 L 75.29800415039062 40.14426803588867 L 74.32993316650391 40.14426803588867 L 74.32993316650391 38.78796005249023 L 75.29800415039062 38.78796005249023 L 75.29800415039062 38.47111129760742 L 74.17697143554688 38.47111129760742 L 74.17697143554688 38.18629837036133 L 75.29800415039062 38.18629837036133 L 75.29800415039062 37.81991958618164 L 75.7467041015625 37.85342025756836 C 75.74159240722656 37.88618850708008 75.70806884765625 37.91315078735352 75.63742828369141 37.92406845092773 L 75.63742828369141 38.18629837036133 L 76.785400390625 38.18629837036133 L 76.785400390625 38.47111129760742 L 75.63742828369141 38.47111129760742 L 75.63742828369141 38.78796005249023 L 76.63755035400391 38.78796005249023 L 76.63755035400391 40.14426803588867 L 75.63162231445312 40.14426803588867 L 75.63162231445312 40.46693801879883 L 76.80799865722656 40.46693801879883 L 76.80799865722656 40.68037033081055 C 77.02068328857422 40.48880004882812 77.22319793701172 40.26955032348633 77.40383148193359 40.03499984741211 C 77.22319793701172 39.42823791503906 77.11392974853516 38.65174865722656 77.05419921875 37.79805755615234 L 74.02400207519531 37.79805755615234 L 74.02400207519531 37.4804801940918 L 75.29800415039062 37.4804801940918 L 75.29800415039062 37.00555801391602 L 74.27020263671875 37.00555801391602 L 74.27020263671875 36.69889068603516 L 75.29800415039062 36.69889068603516 L 75.29800415039062 36.23999786376953 Z M 75.32059478759766 39.35176086425781 L 75.32059478759766 39.01815032958984 L 74.61475372314453 39.01815032958984 L 74.61475372314453 39.35176086425781 L 75.32059478759766 39.35176086425781 Z M 76.342529296875 39.35176086425781 L 76.342529296875 39.01815032958984 L 75.61558532714844 39.01815032958984 L 75.61558532714844 39.35176086425781 L 76.342529296875 39.35176086425781 Z M 75.32059478759766 39.91481018066406 L 75.32059478759766 39.57537841796875 L 74.61475372314453 39.57537841796875 L 74.61475372314453 39.91481018066406 L 75.32059478759766 39.91481018066406 Z M 76.342529296875 39.91481018066406 L 76.342529296875 39.57537841796875 L 75.61558532714844 39.57537841796875 L 75.61558532714844 39.91481018066406 L 76.342529296875 39.91481018066406 Z M 78.03244781494141 36.32667922973633 C 78.32238006591797 36.54592895507812 78.66616821289062 36.86351013183594 78.81986999511719 37.08275985717773 L 78.54598236083984 37.29545974731445 C 78.39302825927734 37.06528854370117 78.06014251708984 36.73749923706055 77.77021789550781 36.50730895996094 L 78.03244781494141 36.32667922973633 Z" stroke="none" fill="#fff"/>
        </g>
      </g>
    </g>
  </g>
</svg>
