<?xml version="1.0" encoding="utf-8"?>
<!-- Generator: Adobe Illustrator 24.2.3, SVG Export Plug-In . SVG Version: 6.00 Build 0)  -->
<svg version="1.1" id="圖層_1" xmlns="http://www.w3.org/2000/svg" xmlns:xlink="http://www.w3.org/1999/xlink" x="0px" y="0px"
	 viewBox="0 0 147.4 48.4" style="enable-background:new 0 0 147.4 48.4;" xml:space="preserve">
<style type="text/css">
	.st0{fill:#666464;}
</style>
<g>
	<g>
		<path class="st0" d="M51.9,25.9h12.6c1.6-0.3,2.6-1,3.1-1.8l2.2-7.6h-15L51.9,25.9z M56.4,22.9l1-3.3c0-0.1,0.1-0.1,0.2-0.2
			l0.3-0.2C58,19,58.1,19,58.2,19h6.2c0.2,0,0.3,0.1,0.5,0.2l0.2,0.2c0.3,0,0.3,0.1,0.3,0.2l-1.1,3.2c0,0.1-0.1,0.1-0.1,0.2
			c-0.1,0.1-0.3,0.2-0.6,0.3c-0.1,0-0.2,0.1-0.3,0.1h-6.1c-0.2,0-0.3-0.1-0.5-0.2l-0.2-0.2L56.4,22.9L56.4,22.9z"/>
		<path class="st0" d="M71.5,10.6C71.2,9.2,71,8.1,70.9,7V6.4H60.5c-0.2,0.3-1.1,1.4-1.1,1.3c-2.8,3.6-3.9,4-4.8,3.8
			c-0.2-0.1-0.5-0.2-0.3-0.5l1.4-4.6H45.6l-6.2,19.6h7.6c1.5,0,2.9-0.9,3.1-1.6l3.1-10.4c0-0.1,0.1-0.1,0.2-0.2l0.2-0.1
			c0.1-0.1,0.2-0.1,0.3-0.1h1c0.2,0.1,0.3,0.1,0.5,0.3c0.1,0.2,0,0.6-0.1,0.7c0,0.1,0,0.1-0.1,0.1h14.8c0.1-0.7,0.2-1.1,0.6-1.3
			c0.1-0.1,0.3-0.1,0.6-0.1h0.5l0.6-2.1C71.8,11.3,71.5,10.9,71.5,10.6z M51,8.7l-4.7,15.2V24c-0.1,0.2-0.3,0.3-0.7,0.5h-0.7
			c-0.2,0-0.3-0.1-0.5-0.2l-0.2-0.1C44,24.1,44,24,44,23.9l4.8-15.2c0-0.1,0.1-0.1,0.2-0.2l0.2-0.1c0.1-0.1,0.2-0.1,0.3-0.1h0.6
			c0.2,0,0.3,0.1,0.5,0.1l0.2,0.1C51,8.3,51,8.7,51,8.7z M67.4,12.5c-0.1,0.1-0.2,0.1-0.5,0.1h-6.2c-0.2,0-0.3-0.1-0.5-0.2
			c-0.1-0.1-0.1-0.3,0-0.5l1.5-1.7c1.1-1.6,1.5-1.7,1.8-1.7H66c0.2,0,0.5,0.1,0.6,0.3l0.7,3.2C67.5,12.3,67.4,12.4,67.4,12.5z
			 M80.9,21.6c0-0.1,0-0.1,0.1-0.2l3.1-2.9l2-7.2c0-0.1,0.1-0.2,0.2-0.2h0.1c0.1-0.1,0.3-0.2,0.7-0.3l0.6-2.1
			c-0.3-0.1-0.5-0.3-0.6-0.5V7.9l0.3-1.5H84l-0.6,1.7c0,0.1-0.1,0.2-0.2,0.2l-0.3,0.2c-0.1,0.1-0.2,0.1-0.3,0.1h-0.6
			c-0.1,0-0.3-0.1-0.5-0.1l-0.2-0.2C81,8.2,80.9,8.1,81,8l0.3-1.5h-3.5l-0.5,1.6c0,0.1-0.1,0.2-0.2,0.2l-0.3,0.1
			c-0.1,0-0.2,0.1-0.3,0.1h-0.3l-0.6,2.1c0.5,0.1,0.9,0.2,0.9,0.7v0.1l-2,7v0.2l1.7,2.8c0,0.1,0.1,0.2,0,0.2v0.1
			c0,0.1-0.1,0.1-0.1,0.2c-2.2,1.8-3,2.1-3.6,2c-0.1,0-0.3,0-0.5-0.1h-0.2l-0.6,2h3.8c1-0.2,1.7-0.7,2.3-1.4
			c0.1-0.1,0.2-0.1,0.5-0.1h0.1c0.2,0,0.5,0.1,0.5,0.2c0.5,0.7,1.1,1.1,1.7,1.3h3.3l0.5-2c-1.4-0.1-1.7-0.2-2-0.3
			c-0.1-0.1-0.1-0.1-0.1-0.2L80.8,22c0-0.1-0.1-0.1,0-0.2L80.9,21.6L80.9,21.6z M80.6,18C80.6,18,80.6,18.1,80.6,18
			c-0.2,0.3-0.5,0.6-0.9,0.9c-0.1,0-0.2,0.1-0.3,0.1h-0.2c-0.1,0-0.2,0-0.3-0.1c-0.3-0.2-0.5-0.5-0.6-0.9v-0.1l1.7-6.5
			c0-0.1,0.1-0.2,0.2-0.2l0.3-0.2c0.1-0.1,0.2-0.1,0.3-0.1h0.6c0.2,0,0.3,0.1,0.5,0.1l0.2,0.2c0.1,0.1,0.1,0.2,0.1,0.3L80.6,18z
			 M104.3,13.4L104.3,13.4l1.7-6.9H90.3l-1.8,7c0,0.1-0.1,0.1-0.1,0.2c-0.2,0.2-0.5,0.3-0.9,0.5l-0.6,2.2c0.3,0.1,0.5,0.3,0.6,0.5
			c0,0.1,0.1,0.1,0,0.2l-1.9,6.9h10.7c0.2,0,0.3,0,0.7,0.2c0.1,0.1,0.1,0.2,0.1,0.3c0,0.1-0.1,0.3-0.3,0.3h-1.7l-0.1,1.1
			c5.3,0.1,4.8-0.1,5.1-0.1l0.1-0.1c0.9-0.3,1.1-0.6,1.1-1.4v-0.1c0.1-0.5,0.6-0.2,1.1-0.3l0.5-2.1c-0.3-0.1-0.7-0.2-0.7-0.6v-0.1
			l1.1-4c0-0.1,0.1-0.2,0.2-0.2l0.2-0.1c0.1,0,0.2-0.1,0.2-0.1h0.3l0.6-2.3C104.5,13.9,104.3,13.6,104.3,13.4z M98.5,21.4
			c0,0.2-0.3,0.3-0.6,0.3h-0.3c-0.2,0-1-0.1-1.1-0.1c-0.2-0.1-0.2-0.2-0.2-0.2v-2.8v-0.5h-2.8l-0.1,3.5c0,0.2-0.2,0.5-0.6,0.5h-2.1
			c-0.2,0-0.3-0.1-0.5-0.1L90,21.9c-0.1-0.1-0.1-0.2-0.1-0.3l1.1-4.4c0-0.1,0.1-0.2,0.2-0.2l0.3-0.2c0.1-0.1,0.2-0.1,0.3-0.1h6.8
			c0.2,0,0.3,0.1,0.5,0.2h0.1c0.1,0.1,0.1,0.2,0.1,0.3L98.5,21.4L98.5,21.4z M100.7,13.4c0,0.1-0.1,0.2-0.2,0.2l-0.2,0.2
			c-0.1,0.1-0.2,0.1-0.3,0.1h-0.2c-0.2,0-1-0.1-1.1-0.1l-0.1-0.1c-0.1-0.1-0.1-0.1-0.1-0.2v-3H96c0,2.3,0,3.1-0.1,3.3
			c0,0.2-0.3,0.3-0.6,0.3H93c-0.2,0-0.3-0.1-0.5-0.1c-0.1-0.1-0.1-0.2-0.1-0.3l1.1-4.4c0-0.1,0.1-0.2,0.2-0.2l0.2-0.2
			c0.1,0,0.2-0.1,0.3-0.1h6.8c0.1,0,0.3,0,0.5,0.1l0.2,0.2c0.1,0.1,0.2,0.2,0.1,0.3L100.7,13.4z"/>
		<g>
			<path class="st0" d="M132.1,9.9l0.2-0.1c0.1,0,0.2-0.1,0.3-0.1h5.2l0.6-2.2h-5.4c-0.3-0.1-0.7-0.5-0.5-0.9V6.5h-3.7
				c-0.1,0.6-0.2,0.9-0.6,1.1c-0.1,0.1-0.3,0.1-0.5,0.1h-5.4l-0.6,2.2h5.2c0.1,0,0.3,0,0.5,0.1l0.2,0.1c0.1,0.1,0.2,0.2,0.1,0.3
				l-0.3,1.4c0,0.1-0.1,0.2-0.2,0.2l-0.2,0.1c-0.1,0.1-0.2,0.1-0.3,0.1h-5.4l-0.6,2.2h9.6c0.1,0,0.3,0,0.5,0.1l0.2,0.1
				c0.1,0.1,0.2,0.2,0.1,0.3l-0.2,0.9c0,0.1-0.1,0.2-0.2,0.2l-0.2,0.1c-0.1,0-0.2,0.1-0.3,0.1h-10.4l-0.6,2.3h10.1
				c0.2,0,0.3,0.1,0.5,0.1l0.2,0.2c0.1,0.1,0.1,0.2,0.1,0.3l-0.9,3.5c0,0.2-0.2,0.6-1.3,0.7h-1.7H126c-0.2,0-0.5-0.1-0.6-0.2
				c-0.2-0.2-0.1-0.6,0-0.9c0.1-0.1,0.1-0.2,0.1-0.3h-0.1c-0.5,0-1.5,0-1.6-1.1c0-0.2,0-0.3-0.1-0.5h-5.1c0.1,0.2,0.2,0.7,0.2,0.7
				c0.3,1.4,0.9,2.1,1.7,2.4c0.6,0.3,1.5,0.3,2.4,0.2c0.7-0.1,1.3,0,1.5,0.2c0.5,0.3,0.1,1-0.1,1.3c0,0.1,0,0.1-0.1,0.1h5.7
				c1.7-0.3,2.1-1,2.3-1.6l1.3-5c0,0,0-0.1,0.1-0.1c0.3-0.3,0.9-0.5,1.5-0.3H135c0.2,0,0.9,0.1,1,0.1l0.6-2.3c-0.7,0-1.7-0.1-2-0.3
				c-0.1-0.1-0.1-0.2-0.1-0.3l0.2-0.9c0-0.1,0.1-0.1,0.1-0.2c0.5-0.3,0.9-0.3,1.1-0.2c0.2,0,0.7,0.1,0.9,0.1l0.6-2.2h-5.4
				c-0.2,0-0.3,0-0.5-0.1l-0.2-0.1c-0.1-0.1-0.1-0.2-0.1-0.3l0.3-1.4C131.8,10.2,132,10.1,132.1,9.9L132.1,9.9z M119.3,11.1l0.5-2.1
				c-0.7,0-1.3,0-1.5-0.2c-0.1-0.1-0.1-0.2-0.1-0.3l0.5-1.8h-3.8l-0.5,2c0,0.1-0.1,0.2-0.2,0.2L114,8.9c-0.1,0-0.2,0.1-0.3,0.1h-0.9
				c-0.1,0-0.3,0-0.5-0.1c-0.2-0.1-0.1-0.2-0.1-0.3l0.1-0.3c0-0.1,0-0.1,0.1-0.1l0.2-0.6h-2v0.2c-0.9,2.8-1.4,3.7-2,3.9v2.1h0.2
				c0.9-0.1,1.6-0.6,2-1.5c0.1-0.5,0.2-0.9,0.5-1c0.1-0.1,0.3-0.1,0.6-0.1h-0.1h0.9c0.1,0,0.3,0,0.5,0.1l0.2,0.1
				c0.1,0.1,0.1,0.2,0.1,0.3l-0.7,2.8c0,0,0,0.1-0.1,0.1c-3.1,3.7-4.8,4-5.5,4.5l-0.6,2.8h1.6c0.7-0.1,1.3-0.3,1.5-0.6
				c0.1-0.1,0.7-0.2,1-0.1c0.2,0.1,0.3,0.2,0.3,0.5l-1.3,4.5h3.8l2.4-9.4v-0.4c0.1-0.1,0.5-0.6,1.5-0.3h-0.1h0.5l0.5-2.1
				c-0.7,0-1.3,0-1.5-0.2c-0.1-0.1-0.1-0.2-0.1-0.5l0.5-1.7v-0.1c0.1-0.1,0.5-0.5,1.5-0.3h-0.1C118.9,11.1,119.1,11.1,119.3,11.1
				L119.3,11.1z"/>
		</g>
		<path class="st0" d="M37.2,23.8H16.9h-0.2c-0.2,0-0.3,0-0.5-0.1c-0.2-0.1-0.7-0.7-0.6-1.6c0-0.1,0-0.3,0.2-0.7
			c0,0,0.1-0.2,0.3-0.2c0.1-0.1,0.2-0.1,0.3-0.1h17.1c0,0,0.1,0,0.2-0.1c2.2-0.3,3.5-1.1,3.8-2.3l3.6-12H15.6
			c-0.6,1.8-4.8,15.2-4.8,15.1L10,23.5c0.2,1.7,1.3,2.4,3,2.6h21.6c0,0,1,0.1,1.8-0.6C37.2,24.9,37.2,23.8,37.2,23.8z M27.3,17.8
			L30,9.6c0-0.1,0.1-0.1,0.2-0.2l0.3-0.2c0.1,0,0.2-0.1,0.3-0.1h3.8c0.1,0,0.3,0,0.5,0.1l0.2,0.2c0.2,0.1,0.2,0.2,0.2,0.3l-2.3,7.4
			c-0.1,0.5-0.6,1-1.8,1.4h0.5h-3.5c-0.1,0-0.2,0-0.3-0.1L28,18.2C27.3,18,27.3,17.9,27.3,17.8z M16.9,17.8l2.8-8.2
			c0-0.1,0.1-0.1,0.2-0.2l0.3-0.2c0.1,0,0.2-0.1,0.3-0.1h3.6c0.1,0,0.3,0,0.5,0.1L25,9.4c0.1,0.1,0.1,0.2,0.1,0.3l-2.8,8.2
			c0,0.1-0.1,0.1-0.2,0.2l-0.3,0.2c-0.1,0-0.2,0.1-0.3,0.1h-3.6c-0.1,0-0.2,0-0.3-0.1l-0.2-0.2C16.9,18,16.9,17.9,16.9,17.8z"/>
	</g>
</g>
<g>
	<path class="st0" d="M21.7,37.8h-2.1v1.1h1.5v0.7H17v1h4.6v0.7H17v1.5h-0.8v-1.5h-4.5v-0.7h4.5v-1h-4v-0.7h1.4v-1.1h-2.1V37h2.1
		v-1.1h-1.3v-0.7H21v0.7h-1.3V37h2.1V37.8z M14.2,34.9V34h-2.6v-0.8h2.6v-0.8h0.8v0.8h3.1v-0.8H19v0.8h2.6V34H19v0.9h-0.8V34h-3.1
		v0.9H14.2z M14.4,35.9V37h1.8v-1.1H14.4z M14.4,38.9h1.8v-1.1h-1.8V38.9z M18.9,37v-1.1H17V37H18.9z M18.9,38.9v-1.1H17v1.1H18.9z"
		/>
	<path class="st0" d="M28.8,32.8h0.9c0,0.1,0,0.1,0,0.3c0,0.1,0,0.2,0,0.3c0.1,2,0.6,3.7,1.4,5.3c0.9,1.6,2.1,2.8,3.6,3.5
		c-0.3,0.2-0.5,0.4-0.6,0.7c-2.1-1-3.6-2.9-4.5-5.7c-0.1-0.3-0.2-0.6-0.2-0.9c-0.7,3.1-2.2,5.3-4.6,6.6c-0.2-0.3-0.4-0.5-0.7-0.7
		c2.9-1.5,4.5-4.4,4.7-8.7c0-0.1,0-0.2,0-0.3C28.8,32.9,28.8,32.8,28.8,32.8z"/>
	<path class="st0" d="M46.3,38.2l0.5,0.2c-0.3,1.1-0.9,1.9-1.7,2.7c0.7,0.5,1.4,0.9,2.3,1.1c-0.2,0.2-0.4,0.4-0.5,0.7
		c-0.9-0.3-1.7-0.7-2.4-1.3c-0.7,0.5-1.4,0.9-2.3,1.2c-0.1-0.3-0.3-0.5-0.4-0.6v0.7H41v-1.1c-1.7,0.2-2.9,0.4-3.9,0.5l-0.1-0.7
		c0.3,0,0.7-0.1,1.1-0.1v-3.8h-1v-0.7h10v0.7h-5.3v4.6c0.8-0.2,1.5-0.6,2.1-1.1c-0.5-0.6-0.9-1.2-1.3-2l0.5-0.2h-1v-0.7h3.9
		L46.3,38.2z M45.9,32.8v3.4h-7.3v-3.4H45.9z M41,37.5h-2.1v0.8H41V37.5z M38.9,38.9v0.8H41v-0.8H38.9z M38.9,40.4v0.9
		c0.2,0,0.4,0,0.7-0.1c0.6-0.1,1-0.1,1.3-0.1v-0.7H38.9z M45,34.2v-0.8h-5.7v0.8H45z M45,35.6v-0.8h-5.7v0.8H45z M45.7,38.9h-2.3
		c0.3,0.6,0.7,1.2,1.1,1.7C45,40.1,45.4,39.5,45.7,38.9z"/>
	<path class="st0" d="M59.9,36.6h-4.3c0.7,2.2,1.9,3.9,3.4,4.9c0.3,0.2,0.7,0.4,1.1,0.6c-0.3,0.2-0.5,0.5-0.6,0.8
		c-2.1-1-3.6-2.9-4.5-5.6c-0.7,2.7-2.2,4.6-4.6,5.6c-0.2-0.3-0.4-0.5-0.6-0.7c2.4-1,3.9-2.9,4.4-5.6H50v-0.9h4.3
		c0.1-0.7,0.2-1.7,0.2-3.2c0,0,0,0,0,0h0.9c0,1.4-0.1,2.5-0.2,3.2h4.7V36.6z"/>
	<path class="st0" d="M67.2,37.5v-2.6h-3.6v1.6h-0.8v-2.2h4.3v-0.7h-3.7v-0.7h8.3v0.7h-3.8v0.7h4.4v2.2h-0.8v-1.6h-3.6v2.6H67.2z
		 M68.9,42.1h2.5c0.3,0,0.5-0.1,0.6-0.3c0.1-0.2,0.1-0.5,0.2-1.1c0.2,0.1,0.5,0.2,0.7,0.3c-0.1,0.8-0.2,1.2-0.4,1.5
		c-0.2,0.2-0.5,0.3-1,0.3h-2.6c-0.7,0-1.2-0.1-1.4-0.3c-0.1-0.2-0.2-0.4-0.2-0.8v-0.4h-2.5v0.6h-0.8v-4h7.7v3.4H68v0.4
		c0,0.2,0.1,0.4,0.2,0.4C68.4,42.1,68.6,42.1,68.9,42.1z M64,37.2v-0.5h2.6v0.5H64z M66.7,35.5V36h-2.4v-0.5H66.7z M67.2,38.5h-2.5
		v0.8h2.5V38.5z M64.7,40.6h2.5v-0.8h-2.5V40.6z M70.7,39.3v-0.8H68v0.8H70.7z M68,40.6h2.7v-0.8H68V40.6z M68.7,35.5h2.4V36h-2.4
		V35.5z M68.7,37.2v-0.5h2.7v0.5H68.7z"/>
	<path class="st0" d="M79.3,39.6l0.1,0.7c-1.1,0.3-2.4,0.7-4,1.1l-0.2-0.8c0.2,0,0.4-0.1,0.8-0.2c0.4-0.1,0.7-0.2,0.9-0.2v-2.8h-1.3
		v-0.8h1.3v-2.5h-1.5v-0.8h3.8v0.8h-1.5v2.5h1.3v0.8h-1.3v2.6c0.2,0,0.4-0.1,0.7-0.2C78.8,39.8,79.1,39.7,79.3,39.6z M83.9,42h0.8
		c0.1,0,0.2-0.1,0.2-0.2c0-0.2,0.1-0.6,0.1-1.3c0.2,0.1,0.4,0.3,0.7,0.3c0,1-0.2,1.6-0.4,1.8c-0.1,0.1-0.3,0.2-0.6,0.2h-1
		c-0.5,0-0.8-0.1-0.9-0.4c-0.1-0.2-0.1-0.4-0.1-0.8v-4.3h-1.3c-0.1,1.6-0.3,2.7-0.6,3.5c-0.5,0.9-1.3,1.6-2.4,2.1
		c-0.1-0.2-0.2-0.4-0.4-0.6c0,0,0,0,0,0c1.1-0.4,1.8-1,2.2-1.8c0.3-0.6,0.5-1.6,0.5-3c0,0,0,0,0-0.1h-1.5v-0.8h6.5v0.8h-2v4.3
		c0,0.2,0,0.3,0.1,0.3C83.8,42,83.9,42,83.9,42z M85,33.2V34h-5.4v-0.8H85z"/>
	<path class="st0" d="M88.4,38.4V37H89v1.3c0,1.6-0.2,2.8-0.5,3.6c-0.1-0.2-0.3-0.3-0.5-0.4c0,0,0,0,0,0
		C88.3,40.8,88.4,39.7,88.4,38.4z M92.5,36.2h-1.8v6.6H90v-6.6h-1.8v-0.8h4.4V36.2z M92.3,33.2v0.7h-3.8v-0.7H92.3z M91.6,41.2V37
		h0.6v4.2H91.6z M95.8,41.7h2.6v0.8h-6.1v-0.8H95v-4.6h-2.1v-0.8H95v-3.6h0.8v3.6H98v0.8h-2.2V41.7z"/>
	<path class="st0" d="M102.6,38.6h3.1v3.6h-2.9v0.6H102v-3c-0.2,0.3-0.5,0.7-0.8,1c-0.1-0.2-0.3-0.4-0.6-0.7
		c0.7-0.6,1.2-1.5,1.5-2.7h-0.8v-0.7h1c0.1-0.5,0.2-0.9,0.2-1.1h-1.8v-0.7h1.9c0.1-0.7,0.1-1.1,0.1-1.1h-1.4V33h4.1v1.9h0.7v0.7
		h-0.7v1.9H103C102.9,37.8,102.8,38.2,102.6,38.6z M104.9,39.4h-2.1v2.1h2.1V39.4z M104.7,35.6h-1.3c0,0.3-0.1,0.6-0.2,1.1h1.6V35.6
		z M104.7,33.8h-1.1c0,0.5-0.1,0.9-0.1,1.1h1.3V33.8z M111.2,39.4v0.8H109v2.7h-0.8v-2.7h-2.1v-0.8h2.1v-1.7h-1.7V37h1.7v-1.5h-1.9
		v-0.8h4.7v0.8h-2V37h1.8v0.8H109v1.7H111.2z M108,34.4l-0.7,0.3c-0.1-0.6-0.4-1.2-0.8-1.9l0.7-0.2C107.6,33.2,107.8,33.8,108,34.4
		C108,34.3,108,34.4,108,34.4z M109.9,32.4l0.8,0.2c-0.5,1-0.8,1.7-0.9,2l-0.7-0.2C109.4,33.8,109.7,33.2,109.9,32.4z"/>
	<path class="st0" d="M114.1,38.9l0.7,0.1c-0.2,1.2-0.4,2.2-0.8,2.9c-0.1-0.1-0.3-0.2-0.6-0.3C113.7,41,113.9,40.1,114.1,38.9z
		 M123.6,33v8.9c0,0.4-0.1,0.7-0.3,0.8c0,0,0,0-0.1,0c-0.3,0.1-0.8,0.1-1.5,0.1c0-0.3-0.1-0.5-0.2-0.7c0.2,0,0.6,0,1.2,0
		c0.1,0,0.2-0.1,0.2-0.2v-8.2h-4.3v9.1h-0.8v-4.4l-0.6,0.3c0-0.2-0.1-0.4-0.2-0.7l-0.9,0.1v4.8h-0.7v-4.8l-1.8,0.1l-0.1-0.8l0.8,0
		c0.4-0.5,0.6-0.8,0.7-0.9c-0.3-0.5-0.8-1.1-1.4-1.6l0.5-0.5l0.3,0.3c0.3-0.6,0.7-1.3,1-2.1l0.7,0.3c-0.5,1-0.9,1.8-1.3,2.3
		c0.2,0.2,0.4,0.4,0.6,0.7c0.4-0.6,0.8-1.3,1.2-2.1l0.7,0.3c-0.9,1.4-1.6,2.5-2.3,3.3l1.6-0.1c-0.1-0.3-0.3-0.6-0.5-1l0.6-0.2
		c0.5,0.7,0.8,1.4,1,2.1V33H123.6z M116.4,39.1l0.6-0.2c0.3,0.7,0.5,1.4,0.6,2.1l-0.7,0.2C116.9,40.5,116.7,39.8,116.4,39.1
		C116.4,39.1,116.4,39.1,116.4,39.1z M120.3,40.4h1.3c0.3,0,0.5,0,0.6,0c0,0.1,0,0.3,0.1,0.7c-0.1,0-0.3,0-0.7,0h-1.3
		c-0.5,0-0.8-0.1-0.9-0.4c-0.1-0.2-0.1-0.4-0.1-0.7v-1.6h-0.5v-0.7h1.4v-1.2H119v-0.7h0.6c-0.1-0.5-0.3-1-0.5-1.5l0.5-0.2
		c0.3,0.5,0.5,1,0.5,1.5l-0.5,0.2h1.8l-0.4-0.2c0.3-0.6,0.5-1.1,0.6-1.7l0.7,0.2c-0.4,0.9-0.7,1.4-0.8,1.6h0.9v0.7H121v1.2h1.5v0.7
		h-2.4V40C120.1,40.3,120.1,40.4,120.3,40.4C120.3,40.4,120.3,40.4,120.3,40.4z"/>
	<path class="st0" d="M129.7,40l1.2-0.3l0.1,0.8c-0.5,0.1-1.2,0.3-2.1,0.5c-1.2,0.3-2,0.5-2.4,0.6l-0.2-0.8c0.1,0,1-0.2,2.6-0.6
		c0.3-1.3,0.5-2.7,0.6-4.2c0,0,0-0.1,0-0.1l0.8,0.2C130.2,37.5,130,38.8,129.7,40z M130.9,34.7v0.8h-4.4v-0.8h1.8v-2.1h0.8v2.1
		H130.9z M128.1,39.9l-0.7,0.1c0-1.2-0.1-2.5-0.4-3.9c0,0,0-0.1,0-0.1l0.7-0.1C127.9,37.3,128.1,38.6,128.1,39.9z M136.7,35.6h-2.8
		v2.2h2.3v4.9h-0.9v-0.5H132v0.5h-0.8v-5h1.9v-5.4h0.9v2.4h2.8V35.6z M135.4,41.5v-2.9H132v2.9H135.4z"/>
</g>
</svg>
