<svg id="Layer_3" data-name="Layer 3" xmlns="http://www.w3.org/2000/svg" width="104.5" height="30.942" viewBox="0 0 104.5 30.942">
  <g id="グループ_649" data-name="グループ 649" transform="translate(0 0)">
    <path id="パス_290" data-name="パス 290" d="M110.695,99.783H13.568A3.667,3.667,0,0,1,9.91,96.122V72.5a3.661,3.661,0,0,1,3.658-3.656h97.126A3.711,3.711,0,0,1,114.41,72.5V96.122a3.716,3.716,0,0,1-3.715,3.661Z" transform="translate(-9.91 -68.841)" fill="#a6a6a6"/>
    <path id="パス_291" data-name="パス 291" d="M113.863,96.324a2.963,2.963,0,0,1-2.966,2.963H13.77a2.966,2.966,0,0,1-2.97-2.963V72.7a2.97,2.97,0,0,1,2.97-2.967H110.9a2.966,2.966,0,0,1,2.966,2.967V96.324Z" transform="translate(-10.112 -69.043)"/>
    <g id="グループ_645" data-name="グループ 645" transform="translate(9.895 4.809)">
      <g id="グループ_644" data-name="グループ 644">
        <path id="パス_292" data-name="パス 292" d="M36.112,86.946a4.484,4.484,0,0,1,2.136-3.763,4.593,4.593,0,0,0-3.617-1.956c-1.522-.16-3,.91-3.773.91-.791,0-1.984-.895-3.271-.869a4.816,4.816,0,0,0-4.053,2.472c-1.753,3.035-.446,7.494,1.234,9.947.84,1.2,1.822,2.543,3.107,2.5,1.257-.052,1.727-.8,3.244-.8s1.944.8,3.254.771c1.349-.022,2.2-1.207,3.009-2.419a9.926,9.926,0,0,0,1.376-2.8A4.335,4.335,0,0,1,36.112,86.946Z" transform="translate(-22.702 -76.452)" fill="#fff"/>
        <path id="パス_293" data-name="パス 293" d="M35.973,78.221a4.414,4.414,0,0,0,1.01-3.163,4.5,4.5,0,0,0-2.907,1.5,4.2,4.2,0,0,0-1.037,3.046A3.714,3.714,0,0,0,35.973,78.221Z" transform="translate(-25.038 -75.058)" fill="#fff"/>
      </g>
    </g>
    <g id="グループ_646" data-name="グループ 646" transform="translate(34.096 3.94)">
      <path id="パス_294" data-name="パス 294" d="M61.668,83.208H60.116l-.851-2.673H56.309l-.81,2.673H53.987l2.929-9.1h1.809Zm-2.659-3.793-.77-2.376q-.121-.364-.459-1.714h-.027q-.136.58-.432,1.714l-.756,2.376Z" transform="translate(-53.987 -73.974)" fill="#fff"/>
      <path id="パス_295" data-name="パス 295" d="M71.8,80.55a3.73,3.73,0,0,1-.9,2.646,2.645,2.645,0,0,1-2.013.864,2.009,2.009,0,0,1-1.861-.931H67v3.455H65.54V79.51q0-1.054-.054-2.16h1.283l.081,1.04h.026a2.594,2.594,0,0,1,4.152-.257A3.622,3.622,0,0,1,71.8,80.55Zm-1.484.054a2.713,2.713,0,0,0-.432-1.58,1.494,1.494,0,0,0-1.269-.647,1.515,1.515,0,0,0-.979.357,1.655,1.655,0,0,0-.574.938,1.868,1.868,0,0,0-.067.446v1.094a1.752,1.752,0,0,0,.438,1.208,1.456,1.456,0,0,0,1.141.493,1.493,1.493,0,0,0,1.283-.634A2.8,2.8,0,0,0,70.319,80.6Z" transform="translate(-56.591 -74.677)" fill="#fff"/>
      <path id="パス_296" data-name="パス 296" d="M81.558,80.55a3.73,3.73,0,0,1-.9,2.646,2.644,2.644,0,0,1-2.012.864,2.009,2.009,0,0,1-1.862-.931h-.027v3.455H75.294V79.51q0-1.054-.053-2.16h1.282l.08,1.04h.027a2.593,2.593,0,0,1,4.151-.257A3.618,3.618,0,0,1,81.558,80.55Zm-1.484.054a2.707,2.707,0,0,0-.432-1.58,1.492,1.492,0,0,0-1.269-.647,1.511,1.511,0,0,0-.979.357,1.651,1.651,0,0,0-.574.938,1.874,1.874,0,0,0-.067.446v1.094a1.749,1.749,0,0,0,.439,1.208,1.454,1.454,0,0,0,1.14.493,1.491,1.491,0,0,0,1.283-.634A2.8,2.8,0,0,0,80.073,80.6Z" transform="translate(-58.8 -74.677)" fill="#fff"/>
      <path id="パス_297" data-name="パス 297" d="M95.017,80.617a2.43,2.43,0,0,1-.808,1.89,3.581,3.581,0,0,1-2.478.8,4.333,4.333,0,0,1-2.358-.567l.337-1.215a3.992,3.992,0,0,0,2.107.58,1.982,1.982,0,0,0,1.283-.372,1.213,1.213,0,0,0,.459-.994,1.271,1.271,0,0,0-.377-.933,3.532,3.532,0,0,0-1.256-.7q-2.39-.892-2.39-2.61a2.31,2.31,0,0,1,.837-1.839,3.3,3.3,0,0,1,2.227-.716,4.421,4.421,0,0,1,2.065.432L94.3,75.554a3.591,3.591,0,0,0-1.741-.418,1.766,1.766,0,0,0-1.2.378,1.083,1.083,0,0,0-.364.823,1.115,1.115,0,0,0,.418.891,4.715,4.715,0,0,0,1.323.7,4.466,4.466,0,0,1,1.727,1.107A2.323,2.323,0,0,1,95.017,80.617Z" transform="translate(-62 -73.934)" fill="#fff"/>
      <path id="パス_298" data-name="パス 298" d="M101.729,78.006h-1.607v3.186q0,1.215.851,1.215a2.612,2.612,0,0,0,.648-.067l.041,1.107a3.307,3.307,0,0,1-1.134.162,1.747,1.747,0,0,1-1.35-.526,2.581,2.581,0,0,1-.487-1.768V78.006h-.958V76.913h.958v-1.2l1.431-.432v1.633h1.607v1.093Z" transform="translate(-63.893 -74.239)" fill="#fff"/>
      <path id="パス_299" data-name="パス 299" d="M110.387,80.577a3.6,3.6,0,0,1-.864,2.484,3.082,3.082,0,0,1-2.4,1,2.935,2.935,0,0,1-2.3-.958,3.488,3.488,0,0,1-.857-2.417,3.567,3.567,0,0,1,.885-2.5,3.062,3.062,0,0,1,2.382-.972,3,3,0,0,1,2.322.958A3.466,3.466,0,0,1,110.387,80.577Zm-1.512.047a2.953,2.953,0,0,0-.391-1.556,1.441,1.441,0,0,0-1.309-.785,1.462,1.462,0,0,0-1.337.785,3.01,3.01,0,0,0-.391,1.583,2.958,2.958,0,0,0,.391,1.557,1.471,1.471,0,0,0,1.323.785,1.455,1.455,0,0,0,1.309-.8A2.946,2.946,0,0,0,108.875,80.624Z" transform="translate(-65.303 -74.677)" fill="#fff"/>
      <path id="パス_300" data-name="パス 300" d="M117.365,78.634a2.482,2.482,0,0,0-.459-.04,1.378,1.378,0,0,0-1.188.58,2.189,2.189,0,0,0-.364,1.3v3.442H113.9l.014-4.5q0-1.135-.054-2.065h1.269l.054,1.255h.04a2.235,2.235,0,0,1,.729-1.039A1.761,1.761,0,0,1,117,77.217a2.251,2.251,0,0,1,.364.027Z" transform="translate(-67.544 -74.677)" fill="#fff"/>
      <path id="パス_301" data-name="パス 301" d="M125.113,80.317a3.476,3.476,0,0,1-.053.661h-4.373a1.9,1.9,0,0,0,.634,1.484,2.168,2.168,0,0,0,1.431.459,4.823,4.823,0,0,0,1.768-.31l.23,1.013a5.49,5.49,0,0,1-2.2.4,3.181,3.181,0,0,1-2.4-.9,3.311,3.311,0,0,1-.871-2.41,3.765,3.765,0,0,1,.81-2.47,2.8,2.8,0,0,1,2.3-1.053,2.442,2.442,0,0,1,2.146,1.053A3.541,3.541,0,0,1,125.113,80.317Zm-1.39-.378a1.978,1.978,0,0,0-.283-1.12,1.273,1.273,0,0,0-1.161-.607,1.387,1.387,0,0,0-1.161.594,2.185,2.185,0,0,0-.432,1.134h3.037Z" transform="translate(-68.772 -74.673)" fill="#fff"/>
    </g>
    <g id="グループ_648" data-name="グループ 648" transform="translate(34.163 16.962)">
      <g id="グループ_647" data-name="グループ 647">
        <path id="パス_302" data-name="パス 302" d="M57.926,101.373V92.8H54.074V91.95l9.55.012-.012.836H58.821l-.012,8.576Zm4.219-2.854a6.543,6.543,0,0,0-.705-.826,8.91,8.91,0,0,0-.745-.659,7.779,7.779,0,0,0-.728-.511c-.237-.145-.455-.275-.654-.39l.39-.653a5.5,5.5,0,0,1,1,.493,8.1,8.1,0,0,1,.877.642q.31.265.607.573t.6.654Z" transform="translate(-54.074 -91.036)" fill="#fff"/>
        <path id="パス_303" data-name="パス 303" d="M76.149,90.768c0,.176,0,.321.005.436s.01.237.017.367l.516-.494a3.1,3.1,0,0,1,1,.585,5.892,5.892,0,0,1,.8.86,1.246,1.246,0,0,1-.219.264c-.083.077-.168.157-.252.241h.78v.815H76.265q.091.986.2,1.857t.213,1.72a5.726,5.726,0,0,0,.572-1.427,10.034,10.034,0,0,0,.241-1.6l.815.241a8.376,8.376,0,0,1-.412,2.127,7.476,7.476,0,0,1-.905,1.818,5.183,5.183,0,0,0,.384.825,2.576,2.576,0,0,0,.591.711c.038.023.073.012.1-.034a2.626,2.626,0,0,0,.092-.384,3.389,3.389,0,0,0,.039-.418c0-.138.006-.272.006-.4s0-.241-.012-.333l.837.3q-.034.528-.109,1.032a2.2,2.2,0,0,1-.339.907.8.8,0,0,1-.585.275.987.987,0,0,1-.39-.1,1.6,1.6,0,0,1-.339-.229,2.079,2.079,0,0,1-.279-.3c-.084-.111-.162-.216-.23-.316a3.52,3.52,0,0,1-.2-.355q-.1-.195-.19-.356a3.022,3.022,0,0,1-.355.367c-.145.131-.3.266-.465.408s-.339.28-.521.418-.364.268-.539.39l-.676-.654q.355-.207.607-.372a3.614,3.614,0,0,0,.356-.258H72.7v1.387h-.906V99.687h-3v-.78H71.8l.012-.436H69.683V95.515h2.132v-.378h-2.6v-.746l2.6-.011v-.528H69.006v-.825H71.77l-.012-.55H69.442v-.767h2.316l.012-.929h.871v.929H75l.012.767H72.652l-.012.55h2.683l-.046-2.258Zm-4.333,5.456-1.307-.011v.367h1.3ZM71.8,97.268h-1.3v.493h1.3ZM75.5,99.057a2.637,2.637,0,0,0,.229-.235q.161-.177.3-.361a8.433,8.433,0,0,1-.252-1.032q-.1-.562-.177-1.163t-.126-1.215q-.052-.613-.1-1.187H72.677v.517h2.567l.012.745H72.677v.39l2.132-.012v2.97H72.677v.436h2.809Zm-1.513-2.843H72.676v.367h1.307Zm0,1.042-1.307.012v.493h1.307Zm3.841-4.23a3.793,3.793,0,0,0-.718-.814,3.7,3.7,0,0,0-.945-.573q.023.4.029.751c0,.234.014.446.029.636Z" transform="translate(-57.406 -90.768)" fill="#fff"/>
      </g>
    </g>
  </g>
</svg>
